<?xml version="1.0" encoding="UTF-8" standalone="no"?>
<!-- Created with Inkscape (http://www.inkscape.org/) -->

<svg
   xmlns:dc="http://purl.org/dc/elements/1.1/"
   xmlns:cc="http://creativecommons.org/ns#"
   xmlns:rdf="http://www.w3.org/1999/02/22-rdf-syntax-ns#"
   xmlns:svg="http://www.w3.org/2000/svg"
   xmlns="http://www.w3.org/2000/svg"
   xmlns:sodipodi="http://sodipodi.sourceforge.net/DTD/sodipodi-0.dtd"
   xmlns:inkscape="http://www.inkscape.org/namespaces/inkscape"
   width="400"
   height="400"
   id="svg2"
   version="1.1"
   inkscape:version="0.48.4 r9939"
   sodipodi:docname="logo.svg">
  <defs
     id="defs4" />
  <sodipodi:namedview
     id="base"
     pagecolor="#ffffff"
     bordercolor="#666666"
     borderopacity="0"
     inkscape:pageopacity="0"
     inkscape:pageshadow="2"
     inkscape:zoom="1"
     inkscape:cx="200"
     inkscape:cy="200"
     inkscape:document-units="px"
     inkscape:current-layer="layer1"
     showgrid="false"
     inkscape:snap-page="false"
     inkscape:snap-center="false"
     inkscape:window-width="981"
     inkscape:window-height="576"
     inkscape:window-x="43"
     inkscape:window-y="24"
     inkscape:window-maximized="1" />
  <metadata
     id="metadata7">
    <rdf:RDF>
      <cc:Work
         rdf:about="">
        <dc:format>image/svg+xml</dc:format>
        <dc:type
           rdf:resource="http://purl.org/dc/dcmitype/StillImage" />
        <dc:title></dc:title>
      </cc:Work>
    </rdf:RDF>
  </metadata>
  <g
     inkscape:label="Layer 1"
     inkscape:groupmode="layer"
     id="layer1"
     transform="translate(0,-652.3622)">
    <path
       transform="matrix(0.94664083,0,0,0.95142182,-14.786049,637.98918)"
       d="m 118.69292,67.659813 c 0,27.615647 -22.499965,50.002547 -50.255084,50.002547 -27.755119,0 -50.255089,-22.3869 -50.255089,-50.002547 0,-27.615647 22.49997,-50.002552 50.255089,-50.002552 27.755119,0 50.255084,22.386905 50.255084,50.002552 z"
       sodipodi:ry="50.002552"
       sodipodi:rx="50.255089"
       sodipodi:cy="67.659813"
       sodipodi:cx="68.437836"
       id="path3779"
       style="fill:#ff9900;fill-opacity:1;fill-rule:nonzero;stroke:#000000;stroke-width:5.1136117;stroke-miterlimit:4;stroke-opacity:1;stroke-dasharray:none"
       sodipodi:type="arc" />
    <rect
       style="fill:#ff9900;fill-opacity:1;fill-rule:nonzero;stroke:#000000;stroke-width:4.8619976;stroke-miterlimit:4;stroke-opacity:1;stroke-dasharray:none"
       id="rect3783"
       width="95.138"
       height="395.138"
       x="152.431"
       y="654.79321"
       ry="49.39225" />
    <path
       sodipodi:type="arc"
       style="fill:#ff9900;fill-opacity:1;fill-rule:nonzero;stroke:#000000;stroke-width:5.1136117;stroke-miterlimit:4;stroke-opacity:1;stroke-dasharray:none"
       id="path3828"
       sodipodi:cx="68.437836"
       sodipodi:cy="67.659813"
       sodipodi:rx="50.255089"
       sodipodi:ry="50.002552"
       d="m 118.69292,67.659813 c 0,27.615647 -22.499965,50.002547 -50.255084,50.002547 -27.755119,0 -50.255089,-22.3869 -50.255089,-50.002547 0,-27.615647 22.49997,-50.002552 50.255089,-50.002552 27.755119,0 50.255084,22.386905 50.255084,50.002552 z"
       transform="matrix(0.94664083,0,0,0.95142182,-14.786049,787.98918)" />
    <path
       transform="matrix(0.94664083,0,0,0.95142182,-14.786049,937.98918)"
       d="m 118.69292,67.659813 c 0,27.615647 -22.499965,50.002547 -50.255084,50.002547 -27.755119,0 -50.255089,-22.3869 -50.255089,-50.002547 0,-27.615647 22.49997,-50.002552 50.255089,-50.002552 27.755119,0 50.255084,22.386905 50.255084,50.002552 z"
       sodipodi:ry="50.002552"
       sodipodi:rx="50.255089"
       sodipodi:cy="67.659813"
       sodipodi:cx="68.437836"
       id="path3830"
       style="fill:#ff9900;fill-opacity:1;fill-rule:nonzero;stroke:#000000;stroke-width:5.1136117;stroke-miterlimit:4;stroke-opacity:1;stroke-dasharray:none"
       sodipodi:type="arc" />
    <rect
       ry="49.39225"
       y="654.79321"
       x="302.431"
       height="395.138"
       width="95.138"
       id="rect3832"
       style="fill:#ff9900;fill-opacity:1;fill-rule:nonzero;stroke:#000000;stroke-width:4.8619976;stroke-miterlimit:4;stroke-opacity:1;stroke-dasharray:none" />
  </g>
</svg>
