<svg xmlns="http://www.w3.org/2000/svg" width="400" height="400">
  <g transform="translate(0 -652.362)" fill="#f90" stroke="#000">
    <path transform="matrix(.94664 0 0 .95142 -14.786 637.99)" d="M118.693 67.66c0 27.615-22.5 50.002-50.255 50.002-27.755 0-50.255-22.387-50.255-50.002 0-27.616 22.5-50.003 50.255-50.003 27.755 0 50.255 22.387 50.255 50.003z" stroke-width="5.114"/>
    <rect width="95.138" height="395.138" x="152.431" y="654.793" ry="49.392" stroke-width="4.862"/>
    <path d="M118.693 67.66c0 27.615-22.5 50.002-50.255 50.002-27.755 0-50.255-22.387-50.255-50.002 0-27.616 22.5-50.003 50.255-50.003 27.755 0 50.255 22.387 50.255 50.003z" transform="matrix(.94664 0 0 .95142 -14.786 787.99)" stroke-width="5.114"/>
    <path transform="matrix(.94664 0 0 .95142 -14.786 937.99)" d="M118.693 67.66c0 27.615-22.5 50.002-50.255 50.002-27.755 0-50.255-22.387-50.255-50.002 0-27.616 22.5-50.003 50.255-50.003 27.755 0 50.255 22.387 50.255 50.003z" stroke-width="5.114"/>
    <rect ry="49.392" y="654.793" x="302.431" height="395.138" width="95.138" stroke-width="4.862"/>
  </g>
</svg>